<svg height="5166" width="720" xmlns="http://www.w3.org/2000/svg">
<rect height="5166" fill="#555" width="720"></rect>
<text fill="#7f7" font-family="Courier New" font-size="12" xml:space="preserve">
<tspan x="10" y="26"></tspan>
<tspan x="10" y="42">&gt; npmdoc-xls-to-json@0.0.1 test /home/travis/build/npmdoc/node-npmdoc-xls-to-json</tspan>
<tspan x="10" y="58">&gt; (set -e; export PORT=$(utility2 shServerPortRandom); utility2 test test.js)</tspan>
<tspan x="10" y="74"></tspan>
<tspan x="10" y="90"></tspan>
<tspan x="10" y="106">[MODE_BUILD=npmTest] - 2017-04-07T15:09:53Z - npm-testing /home/travis/build/npmdoc/node-npmdoc-\</tspan>
<tspan x="10" y="122">xls-to-json</tspan>
<tspan x="10" y="138"></tspan>
<tspan x="10" y="154"></tspan>
<tspan x="10" y="170">covering $ /home/travis/.nvm/versions/node/v6.10.2/bin/node /home/travis/build/npmdoc/node-npmdo\</tspan>
<tspan x="10" y="186">c-xls-to-json/test.js</tspan>
<tspan x="10" y="202">merging file:///home/travis/build/npmdoc/node-npmdoc-xls-to-json/tmp/build/test-report.json to t\</tspan>
<tspan x="10" y="218">est-report</tspan>
<tspan x="10" y="234">&gt; server listening on http-port 47287</tspan>
<tspan x="10" y="250">created apidoc file:///home/travis/build/npmdoc/node-npmdoc-xls-to-json/tmp/build/apidoc.html</tspan>
<tspan x="10" y="266"></tspan>
<tspan x="10" y="282"></tspan>
<tspan x="10" y="298">browserTest - created electron entry-page /home/travis/build/npmdoc/node-npmdoc-xls-to-json/tmp/\</tspan>
<tspan x="10" y="314">electron.15b48f6efb60.d99dcd3d78eec.html</tspan>
<tspan x="10" y="330"></tspan>
<tspan x="10" y="346">[node test-case 1 of 6 passed] - testCase_buildLib_default</tspan>
<tspan x="10" y="362">[node test-case 2 of 6 passed] - testCase_buildReadme_default</tspan>
<tspan x="10" y="378">[node test-case 3 of 6 passed] - testCase_buildTest_default</tspan>
<tspan x="10" y="394"></tspan>
<tspan x="10" y="410">browserTest - created electron entry-page /home/travis/build/npmdoc/node-npmdoc-xls-to-json/tmp/\</tspan>
<tspan x="10" y="426">electron.15b48f6efe00.6c5769eb1e58e.html</tspan>
<tspan x="10" y="442"></tspan>
<tspan x="10" y="458">[ { '': '',</tspan>
<tspan x="10" y="474">    Format: '0',</tspan>
<tspan x="10" y="490">    Valuie: '12345.6789',</tspan>
<tspan x="10" y="506">    'B Fmt': 'General',</tspan>
<tspan x="10" y="522">    'VBA Fmt': '',</tspan>
<tspan x="10" y="538">    Fmt: '',</tspan>
<tspan x="10" y="554">    Macro: '' },</tspan>
<tspan x="10" y="570">  { '': '',</tspan>
<tspan x="10" y="586">    Format: '1',</tspan>
<tspan x="10" y="602">    Valuie: '12346',</tspan>
<tspan x="10" y="618">    'B Fmt': '0',</tspan>
<tspan x="10" y="634">    'VBA Fmt': '12346',</tspan>
<tspan x="10" y="650">    Fmt: '0',</tspan>
<tspan x="10" y="666">    Macro: '12346' },</tspan>
<tspan x="10" y="682">  { '': '',</tspan>
<tspan x="10" y="698">    Format: '2',</tspan>
<tspan x="10" y="714">    Valuie: '12345.68',</tspan>
<tspan x="10" y="730">    'B Fmt': '0.00',</tspan>
<tspan x="10" y="746">    'VBA Fmt': '12345.68',</tspan>
<tspan x="10" y="762">    Fmt: '0.00',</tspan>
<tspan x="10" y="778">    Macro: '12345.68' },</tspan>
<tspan x="10" y="794">  { '': '',</tspan>
<tspan x="10" y="810">    Format: '3',</tspan>
<tspan x="10" y="826">    Valuie: '12,346',</tspan>
<tspan x="10" y="842">    'B Fmt': '#,##0',</tspan>
<tspan x="10" y="858">    'VBA Fmt': '12,346',</tspan>
<tspan x="10" y="874">    Fmt: '#,##0',</tspan>
<tspan x="10" y="890">    Macro: '12,346' },</tspan>
<tspan x="10" y="906">  { '': '',</tspan>
<tspan x="10" y="922">    Format: '4',</tspan>
<tspan x="10" y="938">    Valuie: '12,345.68',</tspan>
<tspan x="10" y="954">    'B Fmt': '#,##0.00',</tspan>
<tspan x="10" y="970">    'VBA Fmt': '12,345.68',</tspan>
<tspan x="10" y="986">    Fmt: '#,##0.00',</tspan>
<tspan x="10" y="1002">    Macro: '12,345.68' },</tspan>
<tspan x="10" y="1018">  { '': '',</tspan>
<tspan x="10" y="1034">    Format: '9',</tspan>
<tspan x="10" y="1050">    Valuie: '1234568%',</tspan>
<tspan x="10" y="1066">    'B Fmt': '0%',</tspan>
<tspan x="10" y="1082">    'VBA Fmt': '1234568%',</tspan>
<tspan x="10" y="1098">    Fmt: '0%',</tspan>
<tspan x="10" y="1114">    Macro: '1234568%' },</tspan>
<tspan x="10" y="1130">  { '': '',</tspan>
<tspan x="10" y="1146">    Format: '10',</tspan>
<tspan x="10" y="1162">    Valuie: '1234567.89%',</tspan>
<tspan x="10" y="1178">    'B Fmt': '0.00%',</tspan>
<tspan x="10" y="1194">    'VBA Fmt': '1234567.89%',</tspan>
<tspan x="10" y="1210">    Fmt: '0.00%',</tspan>
<tspan x="10" y="1226">    Macro: '1234567.89%' },</tspan>
<tspan x="10" y="1242">  { '': '',</tspan>
<tspan x="10" y="1258">    Format: '11',</tspan>
<tspan x="10" y="1274">    Valuie: '1.23E+04',</tspan>
<tspan x="10" y="1290">    'B Fmt': '0.00E+00',</tspan>
<tspan x="10" y="1306">    'VBA Fmt': '1.23E+04',</tspan>
<tspan x="10" y="1322">    Fmt: '0.00E+00',</tspan>
<tspan x="10" y="1338">    Macro: '1.23E+04' },</tspan>
<tspan x="10" y="1354">  { '': '',</tspan>
<tspan x="10" y="1370">    Format: '12',</tspan>
<tspan x="10" y="1386">    Valuie: '12345 2/3',</tspan>
<tspan x="10" y="1402">    'B Fmt': '# ?/?',</tspan>
<tspan x="10" y="1418">    'VBA Fmt': '12346 ?/?',</tspan>
<tspan x="10" y="1434">    Fmt: '# ?/?',</tspan>
<tspan x="10" y="1450">    Macro: '12345 2/3' },</tspan>
<tspan x="10" y="1466">  { '': '',</tspan>
<tspan x="10" y="1482">    Format: '13',</tspan>
<tspan x="10" y="1498">    Valuie: '12345 55/81',</tspan>
<tspan x="10" y="1514">    'B Fmt': '# ??/??',</tspan>
<tspan x="10" y="1530">    'VBA Fmt': '12346 ??/??',</tspan>
<tspan x="10" y="1546">    Fmt: '# ??/??',</tspan>
<tspan x="10" y="1562">    Macro: '12345 55/81' },</tspan>
<tspan x="10" y="1578">  { '': '* What is this supposed to be?',</tspan>
<tspan x="10" y="1594">    Format: '14',</tspan>
<tspan x="10" y="1610">    Valuie: '10/18/33',</tspan>
<tspan x="10" y="1626">    'B Fmt': 'm/d/yy',</tspan>
<tspan x="10" y="1642">    'VBA Fmt': '10/18/33',</tspan>
<tspan x="10" y="1658">    Fmt: 'm/d/yy',</tspan>
<tspan x="10" y="1674">    Macro: '10/18/33' },</tspan>
<tspan x="10" y="1690">  { '': '',</tspan>
<tspan x="10" y="1706">    Format: '15',</tspan>
<tspan x="10" y="1722">    Valuie: '18-Oct-33',</tspan>
<tspan x="10" y="1738">    'B Fmt': 'd-mmm-yy',</tspan>
<tspan x="10" y="1754">    'VBA Fmt': '18-Oct-33',</tspan>
<tspan x="10" y="1770">    Fmt: 'd-mmm-yy',</tspan>
<tspan x="10" y="1786">    Macro: '18-Oct-33' },</tspan>
<tspan x="10" y="1802">  { '': '',</tspan>
<tspan x="10" y="1818">    Format: '16',</tspan>
<tspan x="10" y="1834">    Valuie: '18-Oct',</tspan>
<tspan x="10" y="1850">    'B Fmt': 'd-mmm',</tspan>
<tspan x="10" y="1866">    'VBA Fmt': '18-Oct',</tspan>
<tspan x="10" y="1882">    Fmt: 'd-mmm',</tspan>
<tspan x="10" y="1898">    Macro: '18-Oct' },</tspan>
<tspan x="10" y="1914">  { '': '',</tspan>
<tspan x="10" y="1930">    Format: '17',</tspan>
<tspan x="10" y="1946">    Valuie: 'Oct-33',</tspan>
<tspan x="10" y="1962">    'B Fmt': 'mmm-yy',</tspan>
<tspan x="10" y="1978">    'VBA Fmt': 'Oct-33',</tspan>
<tspan x="10" y="1994">    Fmt: 'mmm-yy',</tspan>
<tspan x="10" y="2010">    Macro: 'Oct-33' },</tspan>
<tspan x="10" y="2026">  { '': '',</tspan>
<tspan x="10" y="2042">    Format: '18',</tspan>
<tspan x="10" y="2058">    Valuie: '4:17 PM',</tspan>
<tspan x="10" y="2074">    'B Fmt': 'h:mm AM/PM',</tspan>
<tspan x="10" y="2090">    'VBA Fmt': '4:17 PM',</tspan>
<tspan x="10" y="2106">    Fmt: 'h:mm AM/PM',</tspan>
<tspan x="10" y="2122">    Macro: '4:17 PM' },</tspan>
<tspan x="10" y="2138">  { '': '',</tspan>
<tspan x="10" y="2154">    Format: '19',</tspan>
<tspan x="10" y="2170">    Valuie: '4:17:37 PM',</tspan>
<tspan x="10" y="2186">    'B Fmt': 'h:mm:ss AM/PM',</tspan>
<tspan x="10" y="2202">    'VBA Fmt': '4:17:37 PM',</tspan>
<tspan x="10" y="2218">    Fmt: 'h:mm:ss AM/PM',</tspan>
<tspan x="10" y="2234">    Macro: '4:17:37 PM' },</tspan>
<tspan x="10" y="2250">  { '': '',</tspan>
<tspan x="10" y="2266">    Format: '20',</tspan>
<tspan x="10" y="2282">    Valuie: '16:17',</tspan>
<tspan x="10" y="2298">    'B Fmt': 'h:mm',</tspan>
<tspan x="10" y="2314">    'VBA Fmt': '16:17',</tspan>
<tspan x="10" y="2330">    Fmt: 'h:mm',</tspan>
<tspan x="10" y="2346">    Macro: '16:17' },</tspan>
<tspan x="10" y="2362">  { '': '',</tspan>
<tspan x="10" y="2378">    Format: '21',</tspan>
<tspan x="10" y="2394">    Valuie: '16:17:37',</tspan>
<tspan x="10" y="2410">    'B Fmt': 'h:mm:ss',</tspan>
<tspan x="10" y="2426">    'VBA Fmt': '16:17:37',</tspan>
<tspan x="10" y="2442">    Fmt: 'h:mm:ss',</tspan>
<tspan x="10" y="2458">    Macro: '16:17:37' },</tspan>
<tspan x="10" y="2474">  { '': '',</tspan>
<tspan x="10" y="2490">    Format: '22',</tspan>
<tspan x="10" y="2506">    Valuie: '10/18/33 16:17',</tspan>
<tspan x="10" y="2522">    'B Fmt': 'm/d/yy h:mm',</tspan>
<tspan x="10" y="2538">    'VBA Fmt': '10/18/33 16:17',</tspan>
<tspan x="10" y="2554">    Fmt: 'm/d/yy h:mm',</tspan>
<tspan x="10" y="2570">    Macro: '10/18/33 16:17' },</tspan>
<tspan x="10" y="2586">  { '': '',</tspan>
<tspan x="10" y="2602">    Format: '37',</tspan>
<tspan x="10" y="2618">    Valuie: '12,346',</tspan>
<tspan x="10" y="2634">    'B Fmt': '#,##0 ;(#,##0)',</tspan>
<tspan x="10" y="2650">    'VBA Fmt': '12,346',</tspan>
<tspan x="10" y="2666">    Fmt: '#,##0 ;(#,##0)',</tspan>
<tspan x="10" y="2682">    Macro: '12,346' },</tspan>
<tspan x="10" y="2698">  { '': '',</tspan>
<tspan x="10" y="2714">    Format: '38',</tspan>
<tspan x="10" y="2730">    Valuie: '12,346',</tspan>
<tspan x="10" y="2746">    'B Fmt': '#,##0 ;[Red](#,##0)',</tspan>
<tspan x="10" y="2762">    'VBA Fmt': '12,346',</tspan>
<tspan x="10" y="2778">    Fmt: '#,##0 ;[Red](#,##0)',</tspan>
<tspan x="10" y="2794">    Macro: '12,346' },</tspan>
<tspan x="10" y="2810">  { '': '',</tspan>
<tspan x="10" y="2826">    Format: '39',</tspan>
<tspan x="10" y="2842">    Valuie: '12,345.68',</tspan>
<tspan x="10" y="2858">    'B Fmt': '#,##0.00;(#,##0.00)',</tspan>
<tspan x="10" y="2874">    'VBA Fmt': '12,345.68',</tspan>
<tspan x="10" y="2890">    Fmt: '#,##0.00;(#,##0.00)',</tspan>
<tspan x="10" y="2906">    Macro: '12,345.68' },</tspan>
<tspan x="10" y="2922">  { '': '',</tspan>
<tspan x="10" y="2938">    Format: '40',</tspan>
<tspan x="10" y="2954">    Valuie: '12,345.68',</tspan>
<tspan x="10" y="2970">    'B Fmt': '#,##0.00;[Red](#,##0.00)',</tspan>
<tspan x="10" y="2986">    'VBA Fmt': '12,345.68',</tspan>
<tspan x="10" y="3002">    Fmt: '#,##0.00;[Red](#,##0.00)',</tspan>
<tspan x="10" y="3018">    Macro: '12,345.68' },</tspan>
<tspan x="10" y="3034">  { '': '',</tspan>
<tspan x="10" y="3050">    Format: '45',</tspan>
<tspan x="10" y="3066">    Valuie: '17:37',</tspan>
<tspan x="10" y="3082">    'B Fmt': 'mm:ss',</tspan>
<tspan x="10" y="3098">    'VBA Fmt': '10:37',</tspan>
<tspan x="10" y="3114">    Fmt: 'mm:ss',</tspan>
<tspan x="10" y="3130">    Macro: '17:37' },</tspan>
<tspan x="10" y="3146">  { '': '',</tspan>
<tspan x="10" y="3162">    Format: '46',</tspan>
<tspan x="10" y="3178">    Valuie: '296296:17:37',</tspan>
<tspan x="10" y="3194">    'B Fmt': '[h]:mm:ss',</tspan>
<tspan x="10" y="3210">    'VBA Fmt': ':10:37',</tspan>
<tspan x="10" y="3226">    Fmt: '[h]:mm:ss',</tspan>
<tspan x="10" y="3242">    Macro: '296296:17:37' },</tspan>
<tspan x="10" y="3258">  { '': '',</tspan>
<tspan x="10" y="3274">    Format: '47',</tspan>
<tspan x="10" y="3290">    Valuie: '1737.0',</tspan>
<tspan x="10" y="3306">    'B Fmt': 'mmss.0',</tspan>
<tspan x="10" y="3322">    'VBA Fmt': '1037.0',</tspan>
<tspan x="10" y="3338">    Fmt: 'mmss.0',</tspan>
<tspan x="10" y="3354">    Macro: '1737.0' },</tspan>
<tspan x="10" y="3370">  { '': '',</tspan>
<tspan x="10" y="3386">    Format: '48',</tspan>
<tspan x="10" y="3402">    Valuie: '12.3E+3',</tspan>
<tspan x="10" y="3418">    'B Fmt': '##0.0E+0',</tspan>
<tspan x="10" y="3434">    'VBA Fmt': '123.5E+2',</tspan>
<tspan x="10" y="3450">    Fmt: '##0.0E+0',</tspan>
<tspan x="10" y="3466">    Macro: '12.3E+3' },</tspan>
<tspan x="10" y="3482">  { '': '',</tspan>
<tspan x="10" y="3498">    Format: '49',</tspan>
<tspan x="10" y="3514">    Valuie: '12345.6789',</tspan>
<tspan x="10" y="3530">    'B Fmt': '@',</tspan>
<tspan x="10" y="3546">    'VBA Fmt': '12345.6789',</tspan>
<tspan x="10" y="3562">    Fmt: '@',</tspan>
<tspan x="10" y="3578">    Macro: '12345.6789' } ]</tspan>
<tspan x="10" y="3594">Xlib:  extension "RANDR" missing on display ":99.0".</tspan>
<tspan x="10" y="3610">Xlib:  extension "RANDR" missing on display ":99.0".</tspan>
<tspan x="10" y="3626">merging file:///home/travis/build/npmdoc/node-npmdoc-xls-to-json/tmp/build/test-report.json to t\</tspan>
<tspan x="10" y="3642">est-report</tspan>
<tspan x="10" y="3658">Xlib:  extension "RANDR" missing on display ":99.0".</tspan>
<tspan x="10" y="3674">[5869:0407/150955:WARNING:audio_manager.cc(314)] Multiple instances of AudioManager detected</tspan>
<tspan x="10" y="3690">[5869:0407/150955:WARNING:audio_manager.cc(275)] Multiple instances of AudioManager detected</tspan>
<tspan x="10" y="3706">merging file:///home/travis/build/npmdoc/node-npmdoc-xls-to-json/tmp/build/test-report.json to t\</tspan>
<tspan x="10" y="3722">est-report</tspan>
<tspan x="10" y="3738">[5901:0407/150955:ERROR:sandbox_linux.cc(343)] InitializeSandbox() called with multiple threads \</tspan>
<tspan x="10" y="3754">in process gpu-process. </tspan>
<tspan x="10" y="3770">Xlib:  extension "RANDR" missing on display ":99.0".</tspan>
<tspan x="10" y="3786">[5869:0407/150955:ERROR:browser_gpu_channel_host_factory.cc(131)] Failed to create channel.</tspan>
<tspan x="10" y="3802">&gt; [5872:0407/150955:WARNING:audio_manager.cc(314)] Multiple instances of AudioManager detected</tspan>
<tspan x="10" y="3818">[5872:0407/150955:WARNING:audio_manager.cc(275)] Multiple instances of AudioManager detected</tspan>
<tspan x="10" y="3834">server listening on http-port 40667</tspan>
<tspan x="10" y="3850">[5928:0407/150955:ERROR:sandbox_linux.cc(343)] InitializeSandbox() called with multiple threads \</tspan>
<tspan x="10" y="3866">in process gpu-process. </tspan>
<tspan x="10" y="3882">[5872:0407/150955:ERROR:browser_gpu_channel_host_factory.cc(131)] Failed to create channel.</tspan>
<tspan x="10" y="3898"></tspan>
<tspan x="10" y="3914">browserTest - opened url http://127.0.0.1:47287?modeTest=1</tspan>
<tspan x="10" y="3930"></tspan>
<tspan x="10" y="3946"></tspan>
<tspan x="10" y="3962">browserTest - opened url /home/travis/build/npmdoc/node-npmdoc-xls-to-json/tmp/build/apidoc.html</tspan>
<tspan x="10" y="3978"></tspan>
<tspan x="10" y="3994">[5869:0407/150957:INFO:CONSOLE(250)] "----------|-----------|-----------|-----------|-----------\</tspan>
<tspan x="10" y="4010">|</tspan>
<tspan x="10" y="4026">File      |   % Stmts |% Branches |   % Funcs |   % Lines |</tspan>
<tspan x="10" y="4042">----------|-----------|-----------|-----------|-----------|</tspan>
<tspan x="10" y="4058">----------|-----------|-----------|-----------|-----------|</tspan>
<tspan x="10" y="4074">All files |       100 |       100 |       100 |       100 |</tspan>
<tspan x="10" y="4090">----------|-----------|-----------|-----------|-----------|</tspan>
<tspan x="10" y="4106">", source: file:///home/travis/build/npmdoc/node-npmdoc-xls-to-json/tmp/electron.15b48f6efe00.6c\</tspan>
<tspan x="10" y="4122">5769eb1e58e.html (250)</tspan>
<tspan x="10" y="4138">[5869:0407/150957:INFO:CONSOLE(250)] "created coverage file:///tmp/build/coverage.html/index.htm\</tspan>
<tspan x="10" y="4154">l", source: file:///home/travis/build/npmdoc/node-npmdoc-xls-to-json/tmp/electron.15b48f6efe00.6\</tspan>
<tspan x="10" y="4170">c5769eb1e58e.html (250)</tspan>
<tspan x="10" y="4186">[node test-case 4 of 6 passed] - testCase_buildApp_default</tspan>
<tspan x="10" y="4202"></tspan>
<tspan x="10" y="4218">browserTest - created screenCapture file:///home/travis/build/npmdoc/node-npmdoc-xls-to-json/tmp\</tspan>
<tspan x="10" y="4234">/build/screenCapture.npmTest.browser..png</tspan>
<tspan x="10" y="4250"></tspan>
<tspan x="10" y="4266">browserTest - created screenCapture file:///home/travis/build/npmdoc/node-npmdoc-xls-to-json/tmp\</tspan>
<tspan x="10" y="4282">/build/screenCapture.npmTest.browser..html</tspan>
<tspan x="10" y="4298"></tspan>
<tspan x="10" y="4314">browserTest - exit-code 0 - http://127.0.0.1:47287?modeTest=1</tspan>
<tspan x="10" y="4330"></tspan>
<tspan x="10" y="4346"></tspan>
<tspan x="10" y="4362">browserTest - merged coverage from /home/travis/build/npmdoc/node-npmdoc-xls-to-json/tmp/coverag\</tspan>
<tspan x="10" y="4378">e.npmTest.browser.%2F.json</tspan>
<tspan x="10" y="4394"></tspan>
<tspan x="10" y="4410"></tspan>
<tspan x="10" y="4426">browserTest - merging test-report from /home/travis/build/npmdoc/node-npmdoc-xls-to-json/tmp/tes\</tspan>
<tspan x="10" y="4442">t-report.npmTest.browser.%2F.json</tspan>
<tspan x="10" y="4458"></tspan>
<tspan x="10" y="4474">[node test-case 5 of 6 passed] - testCase_webpage_default</tspan>
<tspan x="10" y="4490"></tspan>
<tspan x="10" y="4506">browserTest - created screenCapture file:///home/travis/build/npmdoc/node-npmdoc-xls-to-json/tmp\</tspan>
<tspan x="10" y="4522">/build/screenCapture.npmTest.browser._2Fhome_2Ftravis_2Fbuild_2Fnpmdoc_2Fnode-npmdoc-xls-to-json\</tspan>
<tspan x="10" y="4538">_2Ftmp_2Fbuild_2Fapidoc.html.png</tspan>
<tspan x="10" y="4554"></tspan>
<tspan x="10" y="4570">browserTest - created screenCapture file:///home/travis/build/npmdoc/node-npmdoc-xls-to-json/tmp\</tspan>
<tspan x="10" y="4586">/build/screenCapture.npmTest.browser._2Fhome_2Ftravis_2Fbuild_2Fnpmdoc_2Fnode-npmdoc-xls-to-json\</tspan>
<tspan x="10" y="4602">_2Ftmp_2Fbuild_2Fapidoc.html.html</tspan>
<tspan x="10" y="4618"></tspan>
<tspan x="10" y="4634">browserTest - exit-code 0 - /home/travis/build/npmdoc/node-npmdoc-xls-to-json/tmp/build/apidoc.h\</tspan>
<tspan x="10" y="4650">tml</tspan>
<tspan x="10" y="4666"></tspan>
<tspan x="10" y="4682">[node test-case 6 of 6 passed] - testCase_buildApidoc_default</tspan>
<tspan x="10" y="4698">--------------------------------|-----------|-----------|-----------|-----------|</tspan>
<tspan x="10" y="4714">File                            |   % Stmts |% Branches |   % Funcs |   % Lines |</tspan>
<tspan x="10" y="4730">--------------------------------|-----------|-----------|-----------|-----------|</tspan>
<tspan x="10" y="4746">   node-npmdoc-xls-to-json/     |       100 |       100 |       100 |       100 |</tspan>
<tspan x="10" y="4762">      example.js                |       100 |       100 |       100 |       100 |</tspan>
<tspan x="10" y="4778">      lib.npmdoc_xls_to_json.js |       100 |       100 |       100 |       100 |</tspan>
<tspan x="10" y="4794">      test.js                   |       100 |       100 |       100 |       100 |</tspan>
<tspan x="10" y="4810">--------------------------------|-----------|-----------|-----------|-----------|</tspan>
<tspan x="10" y="4826">All files                       |       100 |       100 |       100 |       100 |</tspan>
<tspan x="10" y="4842">--------------------------------|-----------|-----------|-----------|-----------|</tspan>
<tspan x="10" y="4858"></tspan>
<tspan x="10" y="4874">created coverage file:///home/travis/build/npmdoc/node-npmdoc-xls-to-json/tmp/build/coverage.htm\</tspan>
<tspan x="10" y="4890">l/index.html</tspan>
<tspan x="10" y="4906">merging file:///home/travis/build/npmdoc/node-npmdoc-xls-to-json/tmp/build/test-report.json to t\</tspan>
<tspan x="10" y="4922">est-report</tspan>
<tspan x="10" y="4938"></tspan>
<tspan x="10" y="4954">-------------------------------------------------------</tspan>
<tspan x="10" y="4970">| test-report - buildNpmdoc - node - linux v6.10.2 - 2017-04-07T15:09:13.267Z</tspan>
<tspan x="10" y="4986">|   56346 ms            0 failed        6 passed      |</tspan>
<tspan x="10" y="5002">-------------------------------------------------------</tspan>
<tspan x="10" y="5018"></tspan>
<tspan x="10" y="5034">created test-report file:///home/travis/build/npmdoc/node-npmdoc-xls-to-json/tmp/build/test-repo\</tspan>
<tspan x="10" y="5050">rt.html</tspan>
<tspan x="10" y="5066"></tspan>
<tspan x="10" y="5082"></tspan>
<tspan x="10" y="5098">npmTest - 0 failed tests</tspan>
<tspan x="10" y="5114"></tspan>
<tspan x="10" y="5130"></tspan>
<tspan x="10" y="5146">[MODE_BUILD=npmTest] - 2017-04-07T15:10:12Z - EXIT_CODE - 0</tspan>
</text>
</svg>
